<svg width="63" height="62" viewBox="0 0 63 62" fill="none" xmlns="http://www.w3.org/2000/svg">
<g filter="url(#filter0_dd_5_147)">
<circle cx="31.3912" cy="22.9565" r="10.9565" fill="white"/>
<path fill-rule="evenodd" clip-rule="evenodd" d="M27.9833 16.5652C26.3356 16.5652 25 17.9009 25 19.5486V26.4283C25 28.076 26.3356 29.4116 27.9833 29.4116H34.8631C36.5107 29.4116 37.8464 28.076 37.8464 26.4283V19.5486C37.8464 17.9009 36.5107 16.5652 34.8631 16.5652H27.9833ZM24.0869 19.5486C24.0869 17.3966 25.8314 15.6522 27.9833 15.6522H34.8631C37.015 15.6522 38.7594 17.3966 38.7594 19.5486V26.4283C38.7594 28.5802 37.015 30.3247 34.8631 30.3247H27.9833C25.8314 30.3247 24.0869 28.5802 24.0869 26.4283V19.5486ZM31.7898 20.688C31.3122 20.6172 30.8244 20.6987 30.3959 20.9211C29.9673 21.1435 29.6198 21.4953 29.4028 21.9265C29.1857 22.3578 29.1101 22.8465 29.1868 23.3232C29.2636 23.7999 29.4886 24.2402 29.83 24.5816C30.1714 24.923 30.6117 25.148 31.0884 25.2247C31.5651 25.3014 32.0538 25.2259 32.4851 25.0088C32.9163 24.7918 33.2681 24.4443 33.4905 24.0157C33.7129 23.5872 33.7944 23.0994 33.7236 22.6218C33.6514 22.1347 33.4244 21.6837 33.0761 21.3354C32.7279 20.9872 32.2769 20.7602 31.7898 20.688ZM29.9754 20.1107C30.5744 19.7998 31.2561 19.6858 31.9237 19.7848C32.6046 19.8858 33.235 20.2031 33.7218 20.6898C34.2085 21.1766 34.5258 21.807 34.6268 22.4879C34.7258 23.1554 34.6118 23.8372 34.3009 24.4362C33.9901 25.0352 33.4983 25.521 32.8955 25.8244C32.2927 26.1278 31.6096 26.2334 30.9434 26.1262C30.2771 26.019 29.6616 25.7044 29.1844 25.2272C28.7072 24.75 28.3926 24.1345 28.2854 23.4682C28.1782 22.802 28.2838 22.1188 28.5872 21.516C28.8906 20.9133 29.3764 20.4215 29.9754 20.1107ZM35.2071 18.7481C34.9549 18.7481 34.7505 18.9525 34.7505 19.2046C34.7505 19.4567 34.9549 19.6611 35.2071 19.6611H35.2157C35.4678 19.6611 35.6722 19.4567 35.6722 19.2046C35.6722 18.9525 35.4678 18.7481 35.2157 18.7481H35.2071Z" fill="black"/>
</g>
<defs>
<filter id="filter0_dd_5_147" x="0.434692" y="0" width="61.9131" height="61.913" filterUnits="userSpaceOnUse" color-interpolation-filters="sRGB">
<feFlood flood-opacity="0" result="BackgroundImageFix"/>
<feColorMatrix in="SourceAlpha" type="matrix" values="0 0 0 0 0 0 0 0 0 0 0 0 0 0 0 0 0 0 127 0" result="hardAlpha"/>
<feMorphology radius="4" operator="erode" in="SourceAlpha" result="effect1_dropShadow_5_147"/>
<feOffset dy="8"/>
<feGaussianBlur stdDeviation="12"/>
<feColorMatrix type="matrix" values="0 0 0 0 0.0941176 0 0 0 0 0.152941 0 0 0 0 0.294118 0 0 0 0.08 0"/>
<feBlend mode="normal" in2="BackgroundImageFix" result="effect1_dropShadow_5_147"/>
<feColorMatrix in="SourceAlpha" type="matrix" values="0 0 0 0 0 0 0 0 0 0 0 0 0 0 0 0 0 0 127 0" result="hardAlpha"/>
<feMorphology radius="6" operator="erode" in="SourceAlpha" result="effect2_dropShadow_5_147"/>
<feOffset dy="6"/>
<feGaussianBlur stdDeviation="6"/>
<feColorMatrix type="matrix" values="0 0 0 0 0.0941176 0 0 0 0 0.152941 0 0 0 0 0.294118 0 0 0 0.12 0"/>
<feBlend mode="normal" in2="effect1_dropShadow_5_147" result="effect2_dropShadow_5_147"/>
<feBlend mode="normal" in="SourceGraphic" in2="effect2_dropShadow_5_147" result="shape"/>
</filter>
</defs>
</svg>
